# xmcd
#
# Track frame offsets: 
#        150
#        11311
#        23530
#        36351
#        50568
#        67683
#        80758
#        94311
#        116108
#        134873
#        147746
#        161681
#        174645
#        187477
#        199957
#        212827
#
# Disc length: 3112 seconds
#
# Revision: 0
# Processed by: cddbd v1.5.2PL0 Copyright (c) Steve Scherf et al.
# Submitted via: ExactAudioCopy v1.3
#
DISCID=f80c2610
DTITLE=Nico Brina - Flight 6024
DYEAR=2013
DGENRE=Boogie Woogie, Piano Blues
TTITLE0=A Mess Of Blues
TTITLE1=Love's Just A Dream
TTITLE2=Flight 6024
TTITLE3=Stomo Boogie
TTITLE4=Confessin' The Blues
TTITLE5=Beginning To Realize
TTITLE6=Frame Of Mind
TTITLE7=Tip Of My Tongue
TTITLE8=Magic Nights
TTITLE9=Boogie Woogie Shuffle Jam
TTITLE10=Baby What You Want Me To Do
TTITLE11=One Night
TTITLE12=Barrel Of Monkeys
TTITLE13=Bag's Groove
TTITLE14=Mean Woman Blues
TTITLE15=Buzz Me
EXTD=
EXTT0=
EXTT1=
EXTT2=
EXTT3=
EXTT4=
EXTT5=
EXTT6=
EXTT7=
EXTT8=
EXTT9=
EXTT10=
EXTT11=
EXTT12=
EXTT13=
EXTT14=
EXTT15=
PLAYORDER=
